<?xml version="1.0" standalone="no"?>
<!DOCTYPE svg PUBLIC "-//W3C//DTD SVG 20010904//EN"
 "http://www.w3.org/TR/2001/REC-SVG-20010904/DTD/svg10.dtd">
<svg version="1.0" xmlns="http://www.w3.org/2000/svg"
 width="944.000000pt" height="944.000000pt" viewBox="0 0 944.000000 944.000000"
 preserveAspectRatio="xMidYMid meet">
<metadata>
Created by potrace 1.14, written by Peter Selinger 2001-2017
</metadata>
<g transform="translate(0.000000,944.000000) scale(0.100000,-0.100000)"
fill="#000000" stroke="none">
<path d="M4687 9154 c-1 -1 -69 -4 -152 -8 -82 -4 -166 -9 -185 -11 -19 -2
-62 -6 -95 -9 -33 -3 -71 -8 -85 -10 -49 -9 -105 -18 -130 -21 -23 -3 -52 -8
-105 -19 -26 -5 -247 -56 -260 -60 -5 -2 -23 -6 -40 -11 -129 -33 -475 -155
-520 -183 -5 -4 -16 -7 -23 -8 -23 -4 -335 -162 -431 -219 -51 -30 -97 -55
-101 -55 -5 0 -10 -3 -12 -8 -1 -4 -28 -23 -58 -42 -30 -19 -66 -42 -80 -53
-14 -10 -74 -54 -135 -99 -60 -44 -139 -106 -175 -137 -36 -30 -76 -65 -89
-76 -50 -42 -319 -313 -366 -368 -28 -32 -55 -64 -60 -70 -6 -7 -28 -34 -50
-62 -22 -27 -42 -52 -45 -55 -3 -3 -25 -32 -49 -65 -25 -33 -49 -63 -55 -67
-6 -4 -7 -8 -3 -8 9 0 -43 -73 -55 -78 -5 -2 -8 -10 -8 -18 0 -8 -4 -14 -10
-14 -5 0 -10 -5 -10 -11 0 -5 -18 -37 -40 -69 -22 -32 -40 -64 -40 -69 0 -6
-4 -11 -8 -11 -4 0 -13 -12 -20 -27 -7 -16 -24 -48 -38 -73 -39 -67 -140 -267
-169 -335 -32 -71 -106 -256 -110 -270 -1 -5 -5 -17 -8 -25 -10 -24 -68 -204
-72 -220 -2 -8 -11 -42 -20 -75 -23 -84 -55 -214 -60 -250 -3 -16 -9 -52 -15
-80 -19 -95 -25 -138 -35 -235 -2 -14 -4 -25 -5 -25 -2 0 -10 -106 -13 -167
-1 -21 -5 -38 -8 -38 -3 0 -6 -742 -7 -1650 0 -1180 3 -1650 10 -1650 6 0 9
-3 5 -6 -11 -12 49 -175 72 -194 3 -3 12 -18 20 -33 13 -25 82 -94 139 -139
92 -74 287 -121 447 -108 29 2 23 2 235 1 107 0 204 0 215 0 11 0 112 0 225 1
113 0 219 -1 235 -2 17 -1 37 -2 45 -2 8 1 152 1 320 1 168 -1 314 0 325 1 29
2 24 2 235 1 107 0 204 0 215 0 332 1 432 1 440 1 6 0 26 -1 45 -1 19 -1 42 0
50 0 8 0 103 1 210 0 107 0 204 0 215 0 11 0 112 0 225 1 113 0 219 -1 235 -2
17 -1 37 -2 45 -2 8 1 152 1 320 1 168 -1 314 0 325 1 29 2 24 2 235 1 107 0
204 0 215 0 332 1 432 1 440 1 6 0 26 -1 45 -1 19 -1 42 0 50 0 8 0 103 1 210
0 107 0 204 0 215 0 11 0 112 0 225 1 113 0 219 -1 235 -2 17 -1 37 -2 45 -2
8 1 152 1 320 1 168 -1 314 0 325 0 11 0 81 2 155 4 116 3 146 7 215 31 44 15
82 30 85 34 3 4 17 13 32 21 43 22 137 110 166 155 46 72 70 120 89 181 17 57
18 134 17 1685 0 1463 -3 1735 -18 1828 -3 15 -8 52 -11 82 -4 30 -8 64 -10
75 -2 11 -5 38 -9 60 -4 33 -22 123 -51 261 -3 12 -17 66 -31 120 -14 55 -27
106 -29 114 -2 8 -4 16 -5 18 -2 1 -3 5 -4 10 -11 45 -61 190 -70 201 -6 8
-10 17 -10 20 2 8 -4 26 -29 91 -12 30 -22 57 -22 60 0 3 -13 31 -28 64 -15
32 -27 61 -27 63 0 16 -168 338 -214 412 -15 22 -26 45 -26 51 0 5 -4 10 -10
10 -5 0 -10 7 -10 15 0 8 -4 15 -10 15 -5 0 -10 5 -10 11 0 9 -114 184 -130
199 -3 3 -38 49 -79 103 -41 55 -91 118 -112 140 -21 23 -39 45 -39 49 0 9
-335 346 -390 393 -19 17 -73 61 -120 99 -47 37 -91 75 -97 84 -7 9 -13 13
-13 9 0 -4 -33 17 -73 47 -139 103 -450 296 -477 296 -4 0 -13 7 -20 15 -6 8
-15 14 -18 13 -4 -1 -27 9 -52 21 -25 13 -45 23 -45 22 0 -1 -27 11 -60 27
-33 16 -76 36 -95 45 -19 8 -55 24 -80 35 -40 17 -209 80 -235 86 -5 2 -18 6
-27 9 -10 4 -26 10 -35 14 -10 3 -24 7 -32 9 -8 1 -35 9 -60 18 -25 8 -84 24
-131 36 -96 25 -98 25 -195 46 -38 8 -79 16 -90 19 -11 2 -36 6 -55 9 -77 11
-126 18 -150 22 -34 6 -106 14 -160 19 -79 7 -409 22 -413 19z m328 -598 c28
-3 75 -9 105 -12 95 -9 140 -16 265 -41 170 -33 219 -45 231 -54 6 -5 13 -7
16 -4 3 3 21 -2 41 -10 21 -8 37 -13 37 -10 0 4 6 3 13 -2 6 -4 17 -8 22 -9
29 -5 186 -59 220 -77 22 -11 41 -19 42 -19 15 8 399 -172 433 -203 8 -8 19
-14 23 -14 28 -1 426 -274 503 -346 6 -5 41 -37 79 -70 86 -75 217 -206 287
-286 29 -34 64 -74 78 -90 72 -83 293 -389 295 -409 0 -3 13 -24 28 -48 15
-24 33 -55 40 -70 6 -15 14 -29 18 -32 3 -3 19 -32 35 -65 16 -33 32 -61 37
-63 4 -2 7 -10 7 -17 0 -7 9 -30 20 -52 53 -104 163 -385 174 -448 3 -13 7
-29 11 -35 3 -5 8 -18 10 -27 2 -10 11 -43 20 -73 8 -30 18 -68 21 -85 6 -31
7 -34 17 -75 4 -14 9 -36 11 -50 2 -14 7 -36 10 -50 3 -14 8 -41 11 -60 2 -19
7 -46 9 -60 3 -14 7 -47 10 -75 3 -27 5 -50 6 -50 4 0 10 -68 14 -143 2 -46 6
-86 10 -89 3 -3 1 -12 -5 -20 -6 -7 -8 -13 -3 -13 7 0 12 -2926 5 -3035 -1
-20 -7 -20 -1016 -20 -558 0 -1015 3 -1015 6 0 4 17 24 38 45 79 82 192 235
265 359 47 81 140 283 152 330 1 6 5 17 8 25 8 21 31 93 33 105 1 6 11 51 23
100 12 50 23 108 26 130 2 22 5 40 6 40 2 0 7 39 14 125 8 100 11 320 5 320
-3 0 -5 11 -5 25 1 21 -10 105 -29 216 -6 34 -37 149 -49 179 -3 8 -11 33 -18
55 -23 76 -165 380 -186 397 -7 6 -10 14 -7 19 3 5 1 9 -4 9 -5 0 -14 12 -21
26 -11 24 -139 223 -151 234 -3 3 -14 18 -24 35 -11 16 -23 34 -28 40 -4 5
-66 89 -138 185 -71 96 -133 180 -138 185 -4 6 -49 69 -99 140 -153 218 -292
463 -352 620 -13 33 -27 69 -31 80 -16 37 -33 93 -55 180 -17 68 -19 77 -34
160 -17 95 -22 143 -26 250 -5 143 -14 194 -42 238 -60 95 -137 139 -249 143
-67 2 -77 -1 -158 -42 -47 -24 -114 -62 -147 -84 -33 -22 -62 -40 -65 -40 -2
0 -12 -6 -21 -14 -10 -8 -56 -43 -102 -77 -87 -65 -102 -78 -206 -179 -66 -63
-155 -163 -169 -189 -5 -9 -12 -18 -16 -21 -14 -9 -118 -175 -148 -235 -44
-86 -82 -174 -82 -188 0 -7 -4 -17 -9 -23 -8 -9 -56 -175 -66 -229 -7 -40 -23
-152 -29 -195 -2 -19 -5 -37 -5 -39 -1 -2 -12 4 -25 12 -57 38 -158 53 -236
34 -139 -32 -432 -395 -616 -762 -42 -82 -75 -150 -74 -150 1 0 -4 -13 -10
-30 -32 -80 -82 -223 -86 -244 -3 -13 -9 -32 -15 -43 -5 -10 -7 -18 -4 -18 4
0 3 -6 -2 -12 -4 -7 -8 -17 -9 -23 -1 -5 -11 -48 -22 -95 -23 -96 -33 -142
-37 -173 -1 -12 -6 -42 -9 -67 -51 -349 -32 -732 49 -1000 1 -3 5 -18 9 -35
14 -55 48 -150 57 -160 5 -5 9 -19 9 -32 0 -13 5 -23 10 -23 6 0 10 -6 10 -12
0 -22 95 -202 154 -293 67 -103 150 -208 212 -271 25 -24 41 -45 37 -45 -5 -1
-462 -2 -1016 -3 -893 -1 -1010 0 -1016 14 -9 20 -6 3003 3 3135 4 55 9 111
11 125 2 14 6 50 10 80 6 58 9 80 26 170 6 30 12 64 14 75 2 11 6 35 9 54 3
18 8 41 11 51 3 10 7 27 9 37 17 83 105 364 141 448 7 17 25 59 40 95 30 73
146 312 154 320 3 3 14 21 24 40 35 65 52 95 58 100 3 3 14 21 24 40 10 19 21
37 24 40 3 3 29 39 56 80 206 309 514 624 830 851 50 35 92 67 93 72 2 4 8 7
12 7 5 0 47 24 93 53 45 28 92 57 102 64 11 7 65 36 120 64 54 28 106 55 115
60 54 30 269 119 286 119 8 0 14 5 14 11 0 5 4 8 8 5 5 -3 20 1 35 9 14 7 28
11 31 8 3 -3 11 -1 18 4 19 15 246 82 329 97 13 2 24 5 24 6 0 2 8 4 135 28
58 12 131 24 163 27 32 4 67 8 78 10 12 2 64 7 117 10 54 4 98 8 100 10 5 4
424 -4 477 -9z m-177 -2243 c0 -10 3 -29 7 -43 3 -14 8 -36 11 -50 3 -14 7
-32 9 -40 2 -8 4 -15 5 -15 1 0 3 -7 5 -15 9 -42 58 -187 67 -197 6 -7 8 -13
5 -13 -17 0 142 -334 220 -463 29 -49 53 -90 53 -92 0 -2 37 -59 83 -127 72
-107 115 -167 197 -278 10 -14 58 -79 106 -145 49 -66 91 -122 94 -125 3 -3
25 -34 49 -70 25 -36 47 -67 50 -70 13 -12 51 -70 51 -78 0 -5 6 -15 14 -21
44 -36 200 -331 246 -463 54 -158 64 -218 64 -403 1 -168 -10 -277 -37 -370
-6 -22 -12 -44 -12 -50 -4 -49 -132 -349 -155 -365 -4 -3 -13 -16 -20 -30 -12
-23 -91 -131 -115 -156 -67 -73 -100 -105 -140 -139 -27 -22 -53 -45 -59 -50
-65 -62 -283 -177 -416 -220 -84 -27 -132 -39 -237 -61 -84 -16 -293 -22 -423
-11 -72 6 -88 8 -155 23 -16 4 -39 8 -50 9 -38 5 -213 66 -274 95 -34 17 -63
30 -66 30 -10 0 -143 85 -200 128 -77 58 -231 213 -275 277 -18 28 -37 52 -42
53 -4 2 -8 7 -8 12 0 5 -16 35 -35 67 -34 58 -115 237 -114 256 0 1 -9 28 -20
60 -11 31 -18 57 -16 57 2 0 0 14 -5 32 -5 17 -12 50 -16 72 -3 23 -9 61 -14
84 -4 24 -6 137 -4 250 5 237 5 242 17 242 4 0 5 4 2 10 -3 5 -1 36 5 67 6 32
13 70 15 84 5 35 32 139 58 224 12 39 20 73 19 78 -1 4 2 7 6 7 5 0 9 6 9 13
0 6 10 35 23 62 12 28 25 59 30 70 9 24 86 177 111 221 9 17 23 42 31 55 7 13
15 26 18 29 3 3 18 24 33 48 15 23 31 42 35 42 4 0 48 -42 98 -92 193 -199
272 -248 397 -249 89 -1 153 26 217 90 101 102 118 218 70 457 -6 28 -10 55
-9 60 1 5 0 11 -1 14 -1 3 -3 28 -4 56 -2 28 -5 55 -8 60 -13 23 1 317 19 399
2 11 6 31 9 44 15 74 103 283 124 296 6 4 8 11 5 16 -4 5 -1 9 5 9 6 0 13 8
17 18 17 46 188 242 212 242 5 0 10 -8 9 -17z"/>
<path d="M277 968 c-82 -17 -164 -83 -202 -163 -31 -63 -30 -175 1 -241 25
-53 118 -149 134 -139 5 3 10 1 12 -4 1 -6 17 -13 33 -17 33 -9 8888 -11 8920
-3 146 37 245 204 209 348 -24 93 -75 155 -161 197 l-58 29 -4427 0 c-2435 0
-4442 -3 -4461 -7z"/>
</g>
</svg>
