<svg width="59" height="56" viewBox="0 0 59 56" fill="none" xmlns="http://www.w3.org/2000/svg">
<path d="M3.95078 25.85C3.95078 19.0738 6.64265 12.575 11.4342 7.78347C16.2258 2.99192 22.7245 0.300049 29.5008 0.300049C36.2771 0.300049 42.7758 2.99192 47.5674 7.78347C52.3589 12.575 55.0508 19.0738 55.0508 25.85V44.1001C55.0508 45.0681 54.6662 45.9965 53.9817 46.681C53.2972 47.3655 52.3688 47.75 51.4008 47.75H7.60078C6.63274 47.75 5.70435 47.3655 5.01984 46.681C4.33533 45.9965 3.95078 45.0681 3.95078 44.1001V25.85ZM29.5008 3.95005C23.6925 3.95005 18.1222 6.25736 14.0151 10.3644C9.9081 14.4715 7.60078 20.0418 7.60078 25.85V44.1001H20.394C18.131 41.8517 16.7258 38.6944 16.7258 34.975C16.7258 31.0695 17.9449 28.0109 19.1713 25.9377C19.8116 24.8491 20.5746 23.8376 21.4452 22.9227C21.5182 22.8497 21.5803 22.7877 21.6277 22.7475L21.6825 22.6928L21.7007 22.6745L21.708 22.6709C22.0315 22.3801 22.448 22.2104 22.8828 22.1991C23.3177 22.1877 23.7423 22.3317 24.0805 22.6052C24.1537 21.4792 24.4 20.3712 24.8105 19.3202C25.7194 17.0243 27.5444 14.7869 30.8294 13.0276C31.1072 12.8788 31.4188 12.8046 31.7339 12.812C32.049 12.8195 32.3567 12.9084 32.6272 13.0701C32.8977 13.2318 33.1217 13.4608 33.2775 13.7348C33.4332 14.0088 33.5153 14.3184 33.5158 14.6336C33.5158 18.8055 35.3773 21.6051 37.5344 24.5178L38.0016 25.1383C39.9872 27.7919 42.2758 30.8433 42.2758 34.975C42.2758 38.6944 40.8705 41.8517 38.6075 44.1001H51.4008V25.85C51.4008 20.0418 49.0935 14.4715 44.9864 10.3644C40.8794 6.25736 35.309 3.95005 29.5008 3.95005ZM22.9855 26.7553C21.2754 29.1538 20.3624 32.0293 20.3758 34.975C20.3758 40.4026 24.4127 44.1001 29.5008 44.1001C34.5889 44.1001 38.6258 40.4026 38.6258 34.975C38.6258 32.0989 37.0563 29.9928 34.9101 27.102L34.6071 26.6932C32.8588 24.3426 30.9279 21.5941 30.1833 17.8821C29.3156 18.6419 28.6381 19.5945 28.205 20.6634C27.6283 22.127 27.6429 23.5834 27.778 24.7697C27.8108 25.0653 27.851 25.339 27.8875 25.5982L27.9167 25.7661L28.0006 26.3282C28.0225 26.4997 28.0736 26.872 28.0225 27.2407C27.9742 27.62 27.8199 27.9781 27.5772 28.2736C27.3801 28.5101 27.1289 28.6956 26.8449 28.8144C26.5609 28.9332 26.2525 28.9819 25.9457 28.9562C25.6287 28.9277 25.3221 28.8292 25.0478 28.6679C24.8952 28.5786 24.7499 28.4773 24.6134 28.3649C24.3563 28.15 24.1102 27.9222 23.8761 27.6823C23.5753 27.3771 23.2784 27.0681 22.9855 26.7553ZM2.12578 51.4001C1.64176 51.4001 1.17757 51.5923 0.835312 51.9346C0.493058 52.2768 0.300781 52.741 0.300781 53.2251C0.300781 53.7091 0.493058 54.1733 0.835312 54.5155C1.17757 54.8578 1.64176 55.05 2.12578 55.05H56.8758C57.3598 55.05 57.824 54.8578 58.1663 54.5155C58.5085 54.1733 58.7008 53.7091 58.7008 53.2251C58.7008 52.741 58.5085 52.2768 58.1663 51.9346C57.824 51.5923 57.3598 51.4001 56.8758 51.4001H2.12578Z" fill="white"/>
</svg>
